<svg id="f198973a-396d-4066-a594-0434e05628a2" data-name="Layer 1" xmlns="http://www.w3.org/2000/svg" viewBox="0 0 847.64 200.01">
  <defs>
    <style>
      .fb4e8dcd-1426-44f0-9589-4331c5854abb {
        fill: #fdc74f;
      }

      .bfaef073-44eb-47d4-a477-cbf4378fb154 {
        fill: #4c1c40;
      }

      .e1f7ca08-6c2d-46fe-b196-71edebdfec22 {
        fill: #602952;
      }

      .f94d06ab-db12-45c7-92ca-a28925d81deb {
        fill: #fd9727;
      }

      .eb875644-5836-4ae9-b9a9-206295302f78 {
        fill: #f9662b;
      }

      .b1283bd0-7d6b-4a0b-920c-6c5d74fd2d23 {
        fill: #e9eaeb;
      }

      .e350eb63-cc3f-46d9-a726-f9ff83cf07cc {
        fill: #c8cbce;
      }

      .fa0a1f8f-1b7d-45f3-9614-d459fe7556d5 {
        fill: #e8b19c;
      }

      .b09f7b95-13b5-4402-956f-496a7ba31511 {
        fill: #d09c84;
      }

      .ea5a1f50-5798-48e1-9c61-172b98e05685 {
        fill: #5bdcfd;
      }

      .b84bde1a-3665-48de-bba6-719d39201394 {
        fill: #48c7e5;
      }

      .f5094574-37ea-4b7d-9a32-0c80cf4d19c8 {
        fill: #fc502a;
      }

      .f8347f34-c930-4033-8aee-a75fce4f2a93 {
        fill: #e60d28;
      }

      .a856b8c1-e940-4a98-8666-37e6009604ba {
        fill: #fca629;
      }

      .b9ba6e31-9969-43de-9241-2d7aa3696782 {
        fill: #898989;
      }

      .ae5852ea-6acd-4b67-aeab-cfc22db55c4d {
        fill: #fcba35;
      }
    </style>
  </defs>
  <g>
    <path d="M228.27,199.52a2.89,2.89,0,0,1,3.93,2.09A46.73,46.73,0,0,1,232,207c-.17,1.52.08,3.43-1.3,4.47a2.89,2.89,0,0,1-4.59-1.76c-.14-2.2.26-4.4.33-6.61,0-1.4.42-3,1.87-3.6M169,189a2.84,2.84,0,0,1,3.24.43,5.13,5.13,0,0,1,1.21,2.91c1.13,5.55,2.37,11.08,3.47,16.63a2.91,2.91,0,0,1-3.41,3.51,3.11,3.11,0,0,1-2.33-2.73c-1.22-5.78-2.46-11.56-3.65-17.35A3,3,0,0,1,169,189m-3.42-17.29a2.9,2.9,0,0,1,3.93,2.07c.34,1.74,1,3.5.79,5.29a2.89,2.89,0,0,1-5.2.8,21.22,21.22,0,0,1-1.22-4.92,2.88,2.88,0,0,1,1.7-3.24m92.5-.47a2.91,2.91,0,0,1,4.18,3.29q-3.63,17.47-7.35,34.93a2.91,2.91,0,0,1-4.22,2.14,3.09,3.09,0,0,1-1.37-3.71q3.58-17.09,7.19-34.16a3.37,3.37,0,0,1,1.57-2.49m-27.81.09a2.89,2.89,0,0,1,3.53,1,3.94,3.94,0,0,1,.46,2.64c-.34,4.56-.62,9.13-1,13.7a2.89,2.89,0,1,1-5.77-.21c.28-4.77.65-9.55,1-14.32a3.1,3.1,0,0,1,1.77-2.85m-34.1-.09a2.93,2.93,0,0,1,4.3,2.49c.83,11.38,1.58,22.75,2.42,34.13.16,1.31,0,2.86-1.26,3.6A2.92,2.92,0,0,1,197.1,209c-.83-11.25-1.57-22.5-2.39-33.74-.21-1.47-.06-3.28,1.41-4.06M138.39,160.6q6.27,28.47,12.59,56.92a8.09,8.09,0,0,0,5.5,6.16c1.88.56,3.87.33,5.8.38h91.38c4.52,0,9,0,13.56,0a8,8,0,0,0,6.51-3.45,13.26,13.26,0,0,0,1.72-5q6.07-27.52,12.16-55H138.39m-12.93-14.71c0,2.94,0,5.9,0,8.86,25.06.12,50.12,0,75.17.05h81.88c6,0,12,0,18-.05q.11-4.42,0-8.87c-6-.11-12,0-18,0-52.35,0-104.7-.06-157,.06M244,121.82V140h17.43c2.52,0,5,0,7.58,0,0-6.06,0-12.11,0-18.16-2.54-.06-5.07,0-7.6,0H244M205.62,115V140h22.14V115H205.62m-43-17c-2.81.76-5.53,1.87-8.3,2.76L144,104.24a13,13,0,0,0-4.35,2.29A10.81,10.81,0,0,0,135.8,116c.34,3.24,2.38,5.9,3.76,8.75,6.43-2.17,12.83-4.47,19.28-6.59a2.94,2.94,0,0,1,1.31,5.67c-6,2-11.87,4.07-17.8,6.1l3.93,7.29c4.31-1.46,8.59-3,12.9-4.42a3.71,3.71,0,0,1,3.27.48,5.5,5.5,0,0,1,.77,3.09c-1.42,2.5-4.66,2.5-7,3.56,2.66.13,5.31,0,8,.06h17.52q-2.79-16.34-5.58-32.65a11.91,11.91,0,0,0-2.62-6,10.82,10.82,0,0,0-10.83-3.46m78.76-2.43q-3.6,6.9-7.21,13.81a4.12,4.12,0,0,0-.63,2.09c0,9.55,0,19.1,0,28.65,1.53,0,3.07,0,4.6,0q0-9.48,0-19a5.33,5.33,0,0,1,.84-3.36,4.46,4.46,0,0,1,3.81-1.69h18.6c2.95,0,5.91,0,8.87,0a4.39,4.39,0,0,1,3.71,1.75,5.46,5.46,0,0,1,.81,3.31q0,9.47,0,18.94h4.59c0-9.54,0-19.08,0-28.62a4.64,4.64,0,0,0-.67-2.2c-2.42-4.57-4.78-9.16-7.19-13.73-5.85,0-11.71,0-17.57,0H241.41m-9.11-1.63a30.61,30.61,0,0,1,1,4.53c.55-1,1.08-2.05,1.61-3.08a12.11,12.11,0,0,1-2.64-1.45m4.06-4.21h40.23l0-4.3-18.05,0H236.38c0,1.44,0,2.88,0,4.32m-32.54-22a27.72,27.72,0,0,1-3.41,14.82,50,50,0,0,1-5,6.68c-3.33,4-4.64,9.34-4.49,14.49,0,12.12,0,24.24,0,36.36q4.44,0,8.89,0c0-8.24,0-16.48,0-24.73a5.92,5.92,0,0,1,4.25-5.91,27.77,27.77,0,0,1,5.55-.24c6,0,12.09,0,18.13,0-.08-4.57.42-9.28-1.08-13.68-1-3.48-3.31-6.37-5.67-9.06a27.08,27.08,0,0,1-6.16-18.73c-3.68,0-7.35-.06-11,0m-1.31-30.19V61.82h13.64V37.47H202.51m-2-5.81h17.72A4.07,4.07,0,0,1,222,35.91c0,9,0,18.07,0,27.11.15,1.43-.68,2.61-1.26,3.84a22,22,0,0,0,3.95,14.71c2,2.62,4.31,5,5.87,8,.14-2.5-.5-5.35,1.08-7.54A6.1,6.1,0,0,1,237,79.5c13.17,0,26.35,0,39.51,0a5.8,5.8,0,0,1,5.87,5.19,24.61,24.61,0,0,1-.22,6.53A6.21,6.21,0,0,1,278,95.3c2,3.88,4,7.74,6.05,11.61a9.8,9.8,0,0,1,1.13,4.86V140c5,0,9.92,0,14.87,0a6.23,6.23,0,0,1,6,4.41c.49,2,.23,4,.29,6.05a26.93,26.93,0,0,1-.26,5.61,6.19,6.19,0,0,1-5.63,4.47c-2.31.1-4.61,0-6.92,0q-6.15,27.76-12.29,55.54c-.55,2.56-1.08,5.2-2.57,7.41a13.89,13.89,0,0,1-11.3,6.3H158.6a14,14,0,0,1-10.14-4.73,14.84,14.84,0,0,1-3.26-6.81q-6.39-28.86-12.77-57.72c-2.44,0-4.88.11-7.32-.07a6.13,6.13,0,0,1-5.44-5.76q-.14-4.47,0-8.93a6.15,6.15,0,0,1,5.83-5.78c5.22-.11,10.45,0,15.67-.05q-4.56-8.47-9.12-17a17.11,17.11,0,0,1-2.16-8.54A16.71,16.71,0,0,1,137,101.2a22.55,22.55,0,0,1,6.19-2.83A101.69,101.69,0,0,0,137,87.5c-2.27-3.3-4.77-6.6-8.15-8.85-1.38-1-3.51-1.38-3.9-3.27a2.86,2.86,0,0,1,3.6-3.36c3.71,1.29,6.69,4.06,9.26,6.94,2.95,3.3,5.1,7.19,7.48,10.89-2.59-7.63-5.23-15.26-7.86-22.88a4,4,0,0,1-.16-2.67,2.89,2.89,0,0,1,3.95-1.54A4,4,0,0,1,143,65.28c3,8.65,6,17.29,8.91,25.94a74.41,74.41,0,0,1,.67-17,2.86,2.86,0,1,1,5.66.81,69.32,69.32,0,0,0-.23,18.2,17.7,17.7,0,0,1,13.41-.29,16.67,16.67,0,0,1,10.22,12.67c1.1,6.61,2.36,13.18,3.3,19.82.27-5.7.06-11.41.12-17.11.05-4.51-.31-9.13,1-13.52a28.12,28.12,0,0,1,6.73-11.69,21.61,21.61,0,0,0,5.22-15c.28-1.74-1.51-2.91-1.31-4.65-.06-8.78,0-17.56,0-26.34,0-1.32,0-2.79.87-3.86a4.24,4.24,0,0,1,2.9-1.56" transform="translate(-119.6 -31.66)"/>
    <path class="fb4e8dcd-1426-44f0-9589-4331c5854abb" d="M228.27,199.52c-1.45.56-1.86,2.2-1.87,3.6-.07,2.21-.47,4.41-.33,6.61a2.89,2.89,0,0,0,4.59,1.76c1.38-1,1.13-3,1.3-4.47a46.73,46.73,0,0,0,.24-5.41,2.89,2.89,0,0,0-3.93-2.09M169,189a3,3,0,0,0-1.47,3.4c1.19,5.79,2.43,11.57,3.65,17.35a3.11,3.11,0,0,0,2.33,2.73,2.91,2.91,0,0,0,3.41-3.51c-1.1-5.55-2.34-11.08-3.47-16.63a5.13,5.13,0,0,0-1.21-2.91A2.84,2.84,0,0,0,169,189m-3.42-17.29a2.88,2.88,0,0,0-1.7,3.24,21.22,21.22,0,0,0,1.22,4.92,2.89,2.89,0,0,0,5.2-.8c.25-1.79-.45-3.55-.79-5.29a2.9,2.9,0,0,0-3.93-2.07m92.5-.47a3.37,3.37,0,0,0-1.57,2.49q-3.58,17.08-7.19,34.16a3.09,3.09,0,0,0,1.37,3.71,2.91,2.91,0,0,0,4.22-2.14q3.7-17.46,7.35-34.93a2.91,2.91,0,0,0-4.18-3.29m-27.81.09a3.1,3.1,0,0,0-1.77,2.85c-.34,4.77-.71,9.55-1,14.32a2.89,2.89,0,1,0,5.77.21c.36-4.57.64-9.14,1-13.7a3.94,3.94,0,0,0-.46-2.64,2.89,2.89,0,0,0-3.53-1m-34.1-.09c-1.47.78-1.62,2.59-1.41,4.06.82,11.24,1.56,22.49,2.39,33.74a2.92,2.92,0,0,0,4.48,2.42c1.25-.74,1.42-2.29,1.26-3.6-.84-11.38-1.59-22.75-2.42-34.13a2.93,2.93,0,0,0-4.3-2.49M138.39,160.6H269.65c-4.06,18.62-8.23,37.22-12.32,55.84a13.32,13.32,0,0,1-3.67,7.61H162.28c-1.93-.05-3.92.18-5.8-.38a8.09,8.09,0,0,1-5.5-6.16q-6.3-28.46-12.59-56.92M202.51,37.47h13.64V61.82H202.51V37.47" transform="translate(-119.6 -31.66)"/>
    <path class="bfaef073-44eb-47d4-a477-cbf4378fb154" d="M203.82,67.66c3.67-.07,7.34,0,11,0A27.08,27.08,0,0,0,221,86.38c2.36,2.69,4.63,5.58,5.67,9.06,1.5,4.4,1,9.11,1.08,13.68-6,0-12.09,0-18.13,0,0-2.6,0-5.19,0-7.78a22.65,22.65,0,0,0-4.71-13.61,45.32,45.32,0,0,0-4.51-5.26,27.72,27.72,0,0,0,3.41-14.82" transform="translate(-119.6 -31.66)"/>
    <path class="e1f7ca08-6c2d-46fe-b196-71edebdfec22" d="M200.41,82.48a45.32,45.32,0,0,1,4.51,5.26,22.65,22.65,0,0,1,4.71,13.61c0,2.59,0,5.18,0,7.78a27.77,27.77,0,0,0-5.55.24,5.92,5.92,0,0,0-4.25,5.91c0,8.25,0,16.49,0,24.73q-4.45,0-8.89,0c0-12.12,0-24.24,0-36.36-.15-5.15,1.16-10.47,4.49-14.49a50,50,0,0,0,5-6.68" transform="translate(-119.6 -31.66)"/>
    <path class="f94d06ab-db12-45c7-92ca-a28925d81deb" d="M163.22,136.39c.23,1.23.6,2.42.94,3.62-2.66,0-5.31.07-8-.06,2.37-1.06,5.61-1.06,7-3.56M142.35,130c5.93-2,11.85-4.11,17.8-6.1.84,3.13,1.58,6.29,2.3,9.45a3.71,3.71,0,0,0-3.27-.48c-4.31,1.45-8.59,3-12.9,4.42L142.35,130M144,104.24l10.39-3.58a53.81,53.81,0,0,1,1.85,6.83c.9,3.56,1.71,7.14,2.64,10.69-6.45,2.12-12.85,4.42-19.28,6.59-1.38-2.85-3.42-5.51-3.76-8.75a10.81,10.81,0,0,1,3.81-9.49,13,13,0,0,1,4.35-2.29m92.4-14.61c0-1.44,0-2.88,0-4.32h22.19q0,2.16,0,4.32H236.36" transform="translate(-119.6 -31.66)"/>
    <path class="eb875644-5836-4ae9-b9a9-206295302f78" d="M162.65,97.9a10.82,10.82,0,0,1,10.83,3.46,11.91,11.91,0,0,1,2.62,6q2.78,16.32,5.58,32.65H164.16c-.34-1.2-.71-2.39-.94-3.62a5.5,5.5,0,0,0-.77-3.09c-.72-3.16-1.46-6.32-2.3-9.45a2.94,2.94,0,0,0-1.31-5.67c-.93-3.55-1.74-7.13-2.64-10.69a53.81,53.81,0,0,0-1.85-6.83c2.77-.89,5.49-2,8.3-2.76m95.92-12.58,18.05,0,0,4.3h-18q0-2.16,0-4.32" transform="translate(-119.6 -31.66)"/>
    <path class="b1283bd0-7d6b-4a0b-920c-6c5d74fd2d23" d="M241.41,95.47H254c1.85,3.72,3.8,7.38,5.73,11.05a11.9,11.9,0,0,1,1.65,4.09c.15,1.8,0,3.61.07,5.42h-18.6a4.46,4.46,0,0,0-3.81,1.69,5.33,5.33,0,0,0-.84,3.36q0,9.47,0,19c-1.53,0-3.07,0-4.6,0,0-9.55,0-19.1,0-28.65a4.12,4.12,0,0,1,.63-2.09q3.62-6.9,7.21-13.81" transform="translate(-119.6 -31.66)"/>
    <path class="e350eb63-cc3f-46d9-a726-f9ff83cf07cc" d="M254,95.46c5.86,0,11.72,0,17.57,0,2.41,4.57,4.77,9.16,7.19,13.73a4.64,4.64,0,0,1,.67,2.2c0,9.54,0,19.08,0,28.62h-4.59q0-9.48,0-18.94a5.46,5.46,0,0,0-.81-3.31,4.39,4.39,0,0,0-3.71-1.75c-3,0-5.92,0-8.87,0,0-1.81.08-3.62-.07-5.42a11.9,11.9,0,0,0-1.65-4.09c-1.93-3.67-3.88-7.33-5.73-11.05" transform="translate(-119.6 -31.66)"/>
    <path class="fa0a1f8f-1b7d-45f3-9614-d459fe7556d5" d="M205.62,115h4c.06,8.35.08,16.71,0,25.07h-4V115" transform="translate(-119.6 -31.66)"/>
    <path class="b09f7b95-13b5-4402-956f-496a7ba31511" d="M209.62,115h18.14V140H209.62c.08-8.36.06-16.72,0-25.07" transform="translate(-119.6 -31.66)"/>
    <path class="ea5a1f50-5798-48e1-9c61-172b98e05685" d="M244,121.82H261.4q0,9.09,0,18.19H244v-18.2" transform="translate(-119.6 -31.66)"/>
    <path class="b84bde1a-3665-48de-bba6-719d39201394" d="M261.4,121.82c2.53,0,5.06,0,7.6,0,0,6.05,0,12.1,0,18.16-2.53,0-5.06,0-7.58,0q0-9.09,0-18.19" transform="translate(-119.6 -31.66)"/>
    <path class="f5094574-37ea-4b7d-9a32-0c80cf4d19c8" d="M125.46,145.89c52.35-.12,104.7,0,157.05-.06q0,4.48,0,9H200.63c-25,0-50.11.07-75.17-.05,0-3,0-5.92,0-8.86" transform="translate(-119.6 -31.66)"/>
    <path class="f8347f34-c930-4033-8aee-a75fce4f2a93" d="M282.51,145.83c6,0,12-.06,18,0q.11,4.44,0,8.87c-6,.1-12,0-18,.05q0-4.49,0-9" transform="translate(-119.6 -31.66)"/>
    <path class="a856b8c1-e940-4a98-8666-37e6009604ba" d="M269.65,160.61h18q-6.06,27.51-12.16,55a13.26,13.26,0,0,1-1.72,5,8,8,0,0,1-6.51,3.45c-4.52.05-9,0-13.56,0a13.32,13.32,0,0,0,3.67-7.61c4.09-18.62,8.26-37.22,12.32-55.84" transform="translate(-119.6 -31.66)"/>
  </g>
  <g>
    <path class="b9ba6e31-9969-43de-9241-2d7aa3696782" d="M337.06,145a41.78,41.78,0,0,1,14.52,2,17.17,17.17,0,0,1,9.12,7.38,13,13,0,0,1,1.32,2.7q.48,1.38,1,3.06a4.23,4.23,0,0,1,.12,1.74,4.53,4.53,0,0,1-.36,1.38,2.28,2.28,0,0,1-.6.42,2.28,2.28,0,0,0-.6.42,2.07,2.07,0,0,1-1.2.12,3,3,0,0,0-1.2,0,7.27,7.27,0,0,1-2.52.06,5.9,5.9,0,0,1-2.16-.54,2.8,2.8,0,0,1-1.26-1.62,8,8,0,0,0-.9-2,12.21,12.21,0,0,0-3-3.48,9.73,9.73,0,0,0-2.88-1.44q-1.56-.48-3.36-1a2.52,2.52,0,0,0-1.2-.18,4,4,0,0,1-1.2-.06,6.87,6.87,0,0,0-3.6,0h-.72q-.6.12-1.2.18t-1.2.18a16.16,16.16,0,0,0-5.16,2,6.82,6.82,0,0,0-2.76,4.44,3.42,3.42,0,0,0-.06,1.68,9,9,0,0,0,.42,1.44,6,6,0,0,0,1.74,2.58q1,.78,2.58,1.74a13.79,13.79,0,0,0,4.32,1.74q2.4.54,4.8,1.26a22,22,0,0,0,3.12.72,22,22,0,0,1,3.12.72l4.92,1.38a45.18,45.18,0,0,1,4.8,1.62l1.2.48a8.4,8.4,0,0,1,1.2.6,21.66,21.66,0,0,1,4.2,3.24,14.58,14.58,0,0,1,3,4.56,21.63,21.63,0,0,1,.48,2.28,8.33,8.33,0,0,1,.3,1.74q.06.9.06,2v1.2a6.09,6.09,0,0,0-.24,1.68,6.09,6.09,0,0,1-.24,1.68,23.26,23.26,0,0,1-.84,2.52,13.6,13.6,0,0,1-1.08,2.16,15,15,0,0,1-4.92,5,34.79,34.79,0,0,1-6.72,3.18,13.83,13.83,0,0,1-2.22.54,13.83,13.83,0,0,0-2.22.54,12.21,12.21,0,0,1-2.4.24,12.21,12.21,0,0,0-2.4.24h-1.2a11.82,11.82,0,0,1-3.36,0h-1.32a4,4,0,0,0-1.56-.18,3.24,3.24,0,0,1-1.44-.18,8.23,8.23,0,0,0-1.56-.12q-1-.24-1.86-.42a12,12,0,0,1-1.86-.54,27,27,0,0,1-6.48-3,17.77,17.77,0,0,1-4.8-4.68,18.46,18.46,0,0,1-1.8-3.24,33.35,33.35,0,0,1-1.32-3.72,4.66,4.66,0,0,1-.18-1.74,5.32,5.32,0,0,1,.3-1.62,3.92,3.92,0,0,1,1.2-1,5.51,5.51,0,0,1,1.68-.3,13,13,0,0,1,2.16.06q1.08.12,2.1.3a4,4,0,0,1,1.38.42,3,3,0,0,1,1.14,1.74,10.87,10.87,0,0,0,.78,2.1,9.83,9.83,0,0,0,3.24,4.08,11.33,11.33,0,0,0,3.24,1.68q1.8.6,3.84,1.2l2.52.36h.72a8.33,8.33,0,0,0,2.22.24,9.79,9.79,0,0,0,2.34-.24,5.7,5.7,0,0,0,1.32-.12q.72-.12,1.44-.18a11.72,11.72,0,0,0,1.32-.18,16.12,16.12,0,0,0,5.52-2.52,8.83,8.83,0,0,0,2.88-5.28,2.42,2.42,0,0,0,.12-1.32,7.65,7.65,0,0,0-.24-1.08,7.81,7.81,0,0,0-1.68-3.42,11.9,11.9,0,0,0-2.76-2.1,11.22,11.22,0,0,0-2.4-1.2l-2.64-1a2.1,2.1,0,0,0-.66-.12,1.22,1.22,0,0,1-.66-.24,53.17,53.17,0,0,0-8.46-2,36,36,0,0,1-8.22-2.22q-1.2-.48-2.28-.84a9.51,9.51,0,0,1-2-1,26.58,26.58,0,0,1-4.2-3,11.51,11.51,0,0,1-3-4.2,9.11,9.11,0,0,1-.54-1.68q-.18-.84-.42-1.8a10.78,10.78,0,0,1-.24-3.3,28.29,28.29,0,0,1,.36-3.18,4.6,4.6,0,0,0,.3-1,3,3,0,0,1,.3-.9,15.34,15.34,0,0,1,2.94-4.8,21.84,21.84,0,0,1,4.26-3.6,17.73,17.73,0,0,1,4-1.74q2.16-.66,4.56-1.26l1.62-.24,1.74-.24a1.92,1.92,0,0,1,1,0A.91.91,0,0,0,337.06,145Z" transform="translate(-119.6 -31.66)"/>
    <path class="b9ba6e31-9969-43de-9241-2d7aa3696782" d="M376.54,146.47H380a3,3,0,0,1,2.52,1,4.84,4.84,0,0,1,.66,2.4q.06,1.44.06,2.88v35a17.35,17.35,0,0,0,.6,4.86,12.26,12.26,0,0,0,7.2,7.56,13.8,13.8,0,0,0,6.36.78,19.86,19.86,0,0,0,6-1.26,17.65,17.65,0,0,0,6.3-4.26,18,18,0,0,0,3.66-6.78,8.44,8.44,0,0,0,.48-1.92q.12-1,.36-2a3.39,3.39,0,0,0,.06-1.08,2.19,2.19,0,0,1,.18-1.08V180a6.6,6.6,0,0,0,.12-2.22q-.12-1.26-.12-2.34V153.31q0-1.44-.06-3.06a4.5,4.5,0,0,1,.54-2.58,2.18,2.18,0,0,1,1.14-.78l1.62-.42h1.8a24.86,24.86,0,0,1,2.58.12,2.22,2.22,0,0,1,1.74,1.08,2.36,2.36,0,0,1,.6,1.74V203q0,1.44-.06,2.7a2.27,2.27,0,0,1-.9,1.86,3.5,3.5,0,0,1-1.44.54,16,16,0,0,1-2.1.24,12.75,12.75,0,0,1-2.16-.06,3.14,3.14,0,0,1-1.5-.48,4.09,4.09,0,0,1-1.08-1.56,8.08,8.08,0,0,1-.18-1.32q-.06-.84-.18-1.62a2.77,2.77,0,0,0-.48-1.26,1,1,0,0,0-1.08-.36,3.87,3.87,0,0,0-1.92,1.38,10.23,10.23,0,0,1-1.8,1.74,30.76,30.76,0,0,1-6,3.36,9.45,9.45,0,0,1-2.7.78,24.92,24.92,0,0,0-2.82.54,3.34,3.34,0,0,1-1.26,0,2.25,2.25,0,0,0-1.26.12,4.91,4.91,0,0,1-2.16,0h-1.2a3.7,3.7,0,0,0-1.38-.24,7.09,7.09,0,0,1-1.38-.12,1.52,1.52,0,0,0-.9-.18,2,2,0,0,1-1-.18l-1.86-.48a9.85,9.85,0,0,1-1.86-.72,15.25,15.25,0,0,1-5.22-3.54,17.73,17.73,0,0,1-3.42-5.34,11.07,11.07,0,0,1-.72-2.22q-.24-1.14-.48-2.34a3.37,3.37,0,0,1-.18-1.38,4.14,4.14,0,0,0-.18-1.5,1.5,1.5,0,0,1-.12-.66,2.45,2.45,0,0,0-.12-.78v-1.2a3.45,3.45,0,0,1-.06-1.14q.06-.66.06-1.26V149.59a3.18,3.18,0,0,1,.48-1.8,2.79,2.79,0,0,1,1.8-1.2.68.68,0,0,1,.48-.06A.68.68,0,0,0,376.54,146.47Z" transform="translate(-119.6 -31.66)"/>
    <path class="b9ba6e31-9969-43de-9241-2d7aa3696782" d="M494.14,175.75a10.2,10.2,0,0,1,0,3.12A1.91,1.91,0,0,0,494,180a2.2,2.2,0,0,1,0,1,5.7,5.7,0,0,1-.12,1.32,13.36,13.36,0,0,0-.3,2.16,13.36,13.36,0,0,1-.3,2.16q-.24,1-.48,1.86t-.6,1.86a30.13,30.13,0,0,1-4,8,25.92,25.92,0,0,1-1.56,2.1,15.87,15.87,0,0,1-1.8,1.86l-.6.6q-.84.6-1.56,1.2a15.26,15.26,0,0,1-1.68,1.2,13.87,13.87,0,0,1-2.94,1.62q-1.62.66-3.3,1.26a16.87,16.87,0,0,1-1.86.36,16.87,16.87,0,0,0-1.86.36,1.33,1.33,0,0,0-.42.06,1.33,1.33,0,0,1-.42.06,18.13,18.13,0,0,1-3.18.3,15.43,15.43,0,0,1-3.3-.18h-.6q-.84-.12-1.56-.18a6.16,6.16,0,0,1-1.44-.3q-2-.6-3.84-1.08a12.54,12.54,0,0,1-3.36-1.44,22.36,22.36,0,0,1-3.36-2.28q-.48-.36-1.44-1a1.45,1.45,0,0,0-1.8-.06,1.14,1.14,0,0,0-.48,1,4.2,4.2,0,0,1-.24,1.32,1.3,1.3,0,0,0,0,.78,1.72,1.72,0,0,1,0,.9,4.21,4.21,0,0,0-.18,1.62q.06.9.06,1.62V228a4.54,4.54,0,0,1-.72,2.76,2.34,2.34,0,0,1-1.92.9q-1.32.06-2.64.06h-1.92a10.74,10.74,0,0,1-1.38-.48,2,2,0,0,1-.9-.84,4.34,4.34,0,0,1-.54-2.64q.06-1.8.06-3.12v-72q0-1.44.06-2.94a5,5,0,0,1,.66-2.46,2.88,2.88,0,0,1,1.62-.78,9.85,9.85,0,0,1,2.7-.24,14.2,14.2,0,0,1,2.7.36,2.88,2.88,0,0,1,1.62.78,2.53,2.53,0,0,1,.54,1.44,5.19,5.19,0,0,0,.42,1.68,3.65,3.65,0,0,0,.42.54l.42.42a2.58,2.58,0,0,0,2.22-.84A12,12,0,0,1,450.7,149a24.47,24.47,0,0,1,7.44-3.36,19.76,19.76,0,0,1,2.22-.36q1.14-.12,2.34-.36a3,3,0,0,1,1.2,0q.72.12,1-.12a30.46,30.46,0,0,1,9.12,1,26,26,0,0,1,7.08,3.18q.6.48,1.2.9t1.2.9l.42.42.42.42,1.32,1.32q.72.72,1.32,1.44,1.44,2,3,4.44a17.42,17.42,0,0,1,1.62,3.48q.66,1.92,1.26,3.84.24,1,.42,2t.42,2a6.37,6.37,0,0,0,.06.9,5.54,5.54,0,0,1,.06.78,2.87,2.87,0,0,1,.18,1.32,2.87,2.87,0,0,0,.18,1.32ZM483.46,179a3,3,0,0,0,.12-1.5,12.37,12.37,0,0,1-.12-1.62q0-2-.18-3.84a14.64,14.64,0,0,0-.78-3.48q-.24-.72-.42-1.5a6.72,6.72,0,0,0-.54-1.5,20.42,20.42,0,0,0-4.14-6.24,16.8,16.8,0,0,0-5.34-4.08,9.05,9.05,0,0,0-2-.72q-1-.24-2.1-.6a11.4,11.4,0,0,0-2.46-.24h-2.7a1.13,1.13,0,0,1-.9.18,3.45,3.45,0,0,0-1.14.06l-2.1.48a9.05,9.05,0,0,0-2,.72,15.84,15.84,0,0,0-6.3,4.86,23.41,23.41,0,0,0-3.78,7.38A12.76,12.76,0,0,0,446,170q-.18,1.32-.42,2.64a3.72,3.72,0,0,0-.12.9,3.72,3.72,0,0,1-.12.9v1a12.67,12.67,0,0,0,0,3.48v1a4,4,0,0,1,.12,1,2.66,2.66,0,0,0,.12.84,2.27,2.27,0,0,1,.12.72,3.53,3.53,0,0,0,.12.84q.24,1,.42,1.92t.42,1.92a23.6,23.6,0,0,0,3.66,7.14,15.35,15.35,0,0,0,6.18,4.74,24.33,24.33,0,0,0,4.68,1.44,1.65,1.65,0,0,0,1,.18,2.6,2.6,0,0,1,1,.06h1a3,3,0,0,0,1.68,0h1q1.32-.24,2.52-.36a8.8,8.8,0,0,0,2.4-.6,16.8,16.8,0,0,0,6.06-4.14,21.86,21.86,0,0,0,3.9-6.3,20.51,20.51,0,0,0,.9-3.42q.3-1.74.78-3.66a5.56,5.56,0,0,0,.12-1.08,5.56,5.56,0,0,1,.12-1.08Z" transform="translate(-119.6 -31.66)"/>
    <path class="b9ba6e31-9969-43de-9241-2d7aa3696782" d="M555.1,174.91a8.89,8.89,0,0,1,.06,2.7,3.62,3.62,0,0,1-.79,2.1,3.69,3.69,0,0,1-1.73.66,16.75,16.75,0,0,1-2.58.18q-1.44,0-2.88-.06c-1,0-1.81-.06-2.52-.06H513.94q-1,0-1.92.06a3.44,3.44,0,0,0-1.57.42,2.72,2.72,0,0,0-1,1,4.49,4.49,0,0,0-.47,1,1.62,1.62,0,0,0,0,1.26,6.47,6.47,0,0,1,.12,1.08,3.51,3.51,0,0,0,.12,1q.23,1,.48,2a8.53,8.53,0,0,0,.71,2,16.93,16.93,0,0,0,9.12,9.24,9.13,9.13,0,0,0,1.57.6l1.68.48a4.16,4.16,0,0,0,1.2.12,16.53,16.53,0,0,0,4.43.48,16.8,16.8,0,0,0,4.45-.48c1.11-.32,2.13-.66,3.05-1a12.29,12.29,0,0,0,2.58-1.38,10.18,10.18,0,0,0,2.29-2,14.79,14.79,0,0,0,1.67-2.46,17.48,17.48,0,0,0,1.27-2.52,3.47,3.47,0,0,1,1.86-1.92,4.82,4.82,0,0,1,1.56-.36,12.91,12.91,0,0,1,2.15-.06c.73,0,1.4.1,2,.18a2.35,2.35,0,0,1,1.33.48c.79.56,1,1.48.59,2.76a24,24,0,0,1-2.51,5.76,25.12,25.12,0,0,1-5.46,6.3,24.67,24.67,0,0,1-7.75,4,10.81,10.81,0,0,1-2.39.66q-1.21.18-2.52.42a6,6,0,0,1-1.14.12,5.92,5.92,0,0,0-1.15.12h-1.19a7.27,7.27,0,0,1-1.39.12,5.36,5.36,0,0,1-1.26-.12h-1.08a5.56,5.56,0,0,0-1.08-.12,4,4,0,0,1-1-.12,11.85,11.85,0,0,0-1.31-.18,11.41,11.41,0,0,1-1.32-.18c-.72-.16-1.45-.34-2.16-.54s-1.41-.42-2-.66a3,3,0,0,0-.83-.3,2.86,2.86,0,0,1-.84-.3c-1.2-.56-2.49-1.24-3.84-2a22.89,22.89,0,0,1-5.94-5.58,33,33,0,0,1-4.14-7.38,12.58,12.58,0,0,1-.91-2.76,25.64,25.64,0,0,0-.78-2.88,3.46,3.46,0,0,1-.11-.84,6.19,6.19,0,0,0-.12-1,12.74,12.74,0,0,1-.36-2,20.32,20.32,0,0,0-.37-2.16V179a7.54,7.54,0,0,1-.17-1.38,5.06,5.06,0,0,1,.06-1.5v-1.32a3,3,0,0,0,.18-1.26,4.05,4.05,0,0,1,.05-1.26c.32-1.28.58-2.56.79-3.84a14.52,14.52,0,0,1,1-3.6q.58-1.32,1.14-2.7a23.57,23.57,0,0,1,1.26-2.7,34.15,34.15,0,0,1,6-7.26,27.94,27.94,0,0,1,8.28-5.1,15.47,15.47,0,0,1,2.93-.9l3.19-.66q.59-.12,1.08-.18a8.54,8.54,0,0,1,1.08-.06.77.77,0,0,1,.6,0,.53.53,0,0,0,.59-.12,27.82,27.82,0,0,1,8.77,1,27.49,27.49,0,0,1,6.72,3.06,2.49,2.49,0,0,1,1,.66,2.56,2.56,0,0,0,.84.66q.94.72,2,1.68a15,15,0,0,1,1.73,1.92,48,48,0,0,1,3.25,4.8,12.59,12.59,0,0,1,1.32,2.88q.46,1.56,1.08,3.12a18.45,18.45,0,0,1,.89,3.24,31.4,31.4,0,0,0,.79,3.36c.07.56.13,1.12.17,1.68S555,174.35,555.1,174.91Zm-11.65-4.08a4.11,4.11,0,0,0,.61-1.26,3,3,0,0,0,0-1.62,21.43,21.43,0,0,0-2-4.92,22.64,22.64,0,0,0-3.73-4.68,16.88,16.88,0,0,0-5.27-3.24c-.57-.16-1.13-.3-1.69-.42s-1.16-.26-1.8-.42a8.33,8.33,0,0,0-2-.24h-2a1.17,1.17,0,0,1-.83.18,1.89,1.89,0,0,0-.84.06c-.65.16-1.26.3-1.87.42s-1.18.26-1.73.42a16.22,16.22,0,0,0-5.58,3.6,22.06,22.06,0,0,0-3.78,5.4,8.79,8.79,0,0,0-.72,1.5,12.81,12.81,0,0,0-.61,2,6,6,0,0,0-.12,2,1.93,1.93,0,0,0,.85,1.44,5.4,5.4,0,0,0,3.3.66c1.55,0,2.89-.06,4-.06h18.25c1.2,0,2.63,0,4.32.06S542.89,171.47,543.45,170.83Z" transform="translate(-119.6 -31.66)"/>
    <path class="b9ba6e31-9969-43de-9241-2d7aa3696782" d="M589.89,145q2.76,0,3.12,1.38a17,17,0,0,1,.36,4v2.28a2.72,2.72,0,0,1-.6,1.8,2.56,2.56,0,0,1-2,1,12.1,12.1,0,0,0-2.64.42q-1.68.36-3.18.72a15.59,15.59,0,0,0-2.82,1,14.85,14.85,0,0,0-5.64,4.26,28.49,28.49,0,0,0-3.72,6.18,15.81,15.81,0,0,0-.72,2.7q-.24,1.38-.6,2.82a4,4,0,0,0-.06,1.2,4,4,0,0,1-.06,1.2,12,12,0,0,0-.3,3.3q.06,1.86.06,3.54v17.52q0,1.44-.12,2.76a15.18,15.18,0,0,0-.06,2.28,2.31,2.31,0,0,1-.54,1.68,2.43,2.43,0,0,1-1.86,1q-1.26.12-2.7.12h-2.16q-.6-.24-1.14-.42a1.44,1.44,0,0,1-.78-.54,3.85,3.85,0,0,1-.66-2.1q-.06-1.26-.06-2.58V151.75q0-1.32.06-2.46a3.66,3.66,0,0,1,.66-2,2.24,2.24,0,0,1,1.26-.72,9.8,9.8,0,0,1,2-.3,13,13,0,0,1,2.16.06,6.69,6.69,0,0,1,1.68.36,2,2,0,0,1,1.26,1.38,7.62,7.62,0,0,1,.3,2.16v2.4a4.9,4.9,0,0,0,.48,2.22,1.4,1.4,0,0,0,.24.36l.36.36a2.57,2.57,0,0,0,2.16-1.14q.84-1.14,1.44-1.86l.72-.72a17.23,17.23,0,0,1,3-2.76,17.82,17.82,0,0,1,3.6-2.16,9.34,9.34,0,0,1,2.28-.9l2.52-.66q.72-.12,1.44-.18A11.72,11.72,0,0,0,589.89,145Z" transform="translate(-119.6 -31.66)"/>
    <path class="ae5852ea-6acd-4b67-aeab-cfc22db55c4d" d="M630.45,144.91a23.43,23.43,0,0,1,7.8,1,19.41,19.41,0,0,1,5.88,3,9.86,9.86,0,0,1,1.74,1.68,25.17,25.17,0,0,0,1.74,1.92,9,9,0,0,0,.78.66,1.09,1.09,0,0,0,1.14.18,5.25,5.25,0,0,0,2.52-1.74,11.85,11.85,0,0,1,2.28-2.1,18.56,18.56,0,0,1,3.6-2.22,46.09,46.09,0,0,1,4.32-1.74,21.07,21.07,0,0,1,2.34-.42q1.38-.18,2.88-.24a22.75,22.75,0,0,1,2.88.06,19,19,0,0,1,2.46.36,5.56,5.56,0,0,0,1.08.12,3,3,0,0,1,1.08.24q1.68.48,3.24,1a11.8,11.8,0,0,1,2.88,1.32,19,19,0,0,1,7.56,9.12,11.07,11.07,0,0,1,.72,2.22q.24,1.14.48,2.22.12.84.18,1.56t.18,1.44v1.2a7.49,7.49,0,0,1,.06,1.68q-.06,1-.06,1.8v30.36q0,1,.06,2.22t0,2.4a12.23,12.23,0,0,1-.3,2.16,2.35,2.35,0,0,1-.72,1.38,3.07,3.07,0,0,1-1.86.66q-1.14.06-2.46.06h-6.36a16.88,16.88,0,0,1-3-.24,2.27,2.27,0,0,1-1.8-1.32,4.67,4.67,0,0,1-.36-1.86V175q0-.6.06-1.32a2.87,2.87,0,0,0-.18-1.32V170a8.75,8.75,0,0,0-.12-1.44,4.19,4.19,0,0,1-.12-1,4.19,4.19,0,0,0-.12-1,30,30,0,0,0-1-3.18,7.12,7.12,0,0,0-1.62-2.46,9.54,9.54,0,0,0-4.08-2.4,2.08,2.08,0,0,0-.84-.06,1.39,1.39,0,0,1-.84-.18,7.6,7.6,0,0,0-1.14-.18,4.38,4.38,0,0,0-1.26.06,4.53,4.53,0,0,1-1.44.24,4.53,4.53,0,0,0-1.44.24,9.39,9.39,0,0,0-5,3.6,13.7,13.7,0,0,0-2.46,6.9,90.16,90.16,0,0,0-.42,9.06v27.12a2.9,2.9,0,0,1-.6,1.92,2.52,2.52,0,0,1-1.74,1,16.66,16.66,0,0,1-2.58.18h-6.48q-1.08,0-2.1-.06a6.82,6.82,0,0,1-1.74-.3,2.4,2.4,0,0,1-1.38-1.92,22.39,22.39,0,0,1-.18-3v-29q0-3.48-.24-6.6a10.91,10.91,0,0,0-1.56-5.16,6.49,6.49,0,0,0-2.46-2.52,16.62,16.62,0,0,0-3.66-1.44,2.6,2.6,0,0,0-1-.06,3.39,3.39,0,0,1-1.08-.06,4.49,4.49,0,0,0-2.52.24,2,2,0,0,0-.48.06,2,2,0,0,1-.48.06,11.42,11.42,0,0,0-3.72,2,10.37,10.37,0,0,0-2.94,3.3,13.71,13.71,0,0,0-1.44,4.2,33,33,0,0,0-.48,5.1q-.06,2.76-.06,6v25.68a4.83,4.83,0,0,1-.36,1.92,2.27,2.27,0,0,1-1.8,1.32,16.88,16.88,0,0,1-3,.24h-6.24q-1.2,0-2.34-.06a3.65,3.65,0,0,1-1.86-.54,2.42,2.42,0,0,1-1.14-2.22q-.06-1.62-.06-3.42V151.63q0-1.32.06-2.34a3.44,3.44,0,0,1,.54-1.74,3.13,3.13,0,0,1,1.92-1h.72a6.41,6.41,0,0,1,1.26-.12h6.18q1,0,1.86.06a6.48,6.48,0,0,1,1.62.3,2,2,0,0,1,1.26,1.2,16.17,16.17,0,0,1,.54,1.92,1.28,1.28,0,0,1,.06.66.57.57,0,0,0,.18.54,1.37,1.37,0,0,0,.3.54l.42.42a2.81,2.81,0,0,0,2.4-.9,12.6,12.6,0,0,1,1.8-1.62,34.85,34.85,0,0,1,3.42-2.16,18.75,18.75,0,0,1,3.78-1.56,10.48,10.48,0,0,1,2.16-.48q1.08-.12,2.28-.36a2.88,2.88,0,0,1,1.08-.06A2.11,2.11,0,0,0,630.45,144.91Z" transform="translate(-119.6 -31.66)"/>
    <path class="ae5852ea-6acd-4b67-aeab-cfc22db55c4d" d="M755.13,203.59a19.76,19.76,0,0,1,.3,2.64,1.7,1.7,0,0,1-1.26,1.8,3.71,3.71,0,0,1-1.68.36h-8.4q-1.08,0-2.1-.06a2.8,2.8,0,0,1-1.62-.54,3,3,0,0,1-1.26-1.38,4.27,4.27,0,0,0-1.14-1.5,2.28,2.28,0,0,0-.6-.42,1.49,1.49,0,0,0-1-.06,6.2,6.2,0,0,0-1.14.6,6.2,6.2,0,0,1-1.14.6,7.41,7.41,0,0,1-1.32.84l-1.44.72a18.31,18.31,0,0,1-3.24,1.14l-3.48.9a8.19,8.19,0,0,1-1.62.3q-.78.06-1.62.18a4.37,4.37,0,0,0-.72.06,4.37,4.37,0,0,1-.72.06h-1.32a6.06,6.06,0,0,1-2.4,0h-1.08a4.59,4.59,0,0,0-1.62-.18,3.78,3.78,0,0,1-1.5-.18q-1.2-.24-2.28-.42a7.17,7.17,0,0,1-2-.66,20,20,0,0,1-5.94-3.42,14.43,14.43,0,0,1-3.9-5.58,18.82,18.82,0,0,1-.66-1.8q-.3-1-.54-2a2.52,2.52,0,0,1-.18-1.2,4,4,0,0,0-.06-1.2,7,7,0,0,1-.18-1.5,6.2,6.2,0,0,1,.06-1.62,10.68,10.68,0,0,0,.24-2q.36-1.32.72-2.7a10.51,10.51,0,0,1,1-2.46,16.06,16.06,0,0,1,4.68-5.28,26.33,26.33,0,0,1,6.72-3.12,14.84,14.84,0,0,1,3.24-.84q1.68-.24,3.36-.6a10.89,10.89,0,0,1,2-.3,13.36,13.36,0,0,0,2.16-.3,4.82,4.82,0,0,1,1.68-.18,5.74,5.74,0,0,0,1.8-.18,6.09,6.09,0,0,1,1.68-.24,7.44,7.44,0,0,0,1.8-.24q2.52-.6,4.62-1a7.32,7.32,0,0,0,3.78-2.1,5.37,5.37,0,0,0,1.44-2.4,1.09,1.09,0,0,0,.06-.6.68.68,0,0,1,.06-.48,1.67,1.67,0,0,0,.12-.72v-.72a8.1,8.1,0,0,1-.18-1,4.4,4.4,0,0,0-.18-.84,7.57,7.57,0,0,0-5-4.92,13.21,13.21,0,0,0-2.58-.54,19.39,19.39,0,0,0-3.06-.12,23.81,23.81,0,0,0-3,.3,16.73,16.73,0,0,0-2.52.6,6.24,6.24,0,0,0-1.38.66,14.33,14.33,0,0,0-1.26.9,8.09,8.09,0,0,0-1.26,1.32,5.34,5.34,0,0,0-.9,1.56q-.6,1.2-1,2.28a2.4,2.4,0,0,1-1.74,1.44,8.39,8.39,0,0,1-2,.24h-6.72q-.6,0-1.2.06a3.15,3.15,0,0,1-1.08-.06h-1.08a1.34,1.34,0,0,0-.6-.12.81.81,0,0,1-.6-.24,1.93,1.93,0,0,1-1.32-1.56,3,3,0,0,1,0-1.2q.12-.6.24-1.08.36-1.32.78-2.46a11.36,11.36,0,0,1,1-2.1l.72-1.2.72-1.2a14.11,14.11,0,0,1,2.4-2.52,3.42,3.42,0,0,0,.72-.6l1.08-.84a12.65,12.65,0,0,1,1.08-.72,19.61,19.61,0,0,1,4.32-2.1q2.28-.78,4.68-1.5a18.06,18.06,0,0,1,3-.48,21,21,0,0,0,3.12-.48,4.57,4.57,0,0,1,1.5,0q1,.12,1.26-.12a72.22,72.22,0,0,1,9.42.36,34.94,34.94,0,0,1,8.16,1.8,20.47,20.47,0,0,1,6.3,3.54,14.58,14.58,0,0,1,4.08,5.7,13.89,13.89,0,0,1,1,4.68q.12,2.64.12,5.4v31.38a17.57,17.57,0,0,0,.48,4.26,2.45,2.45,0,0,1,.12.78A2.45,2.45,0,0,0,755.13,203.59Zm-17.64-18.48a8,8,0,0,0,0-2.76,4.2,4.2,0,0,1-.24-1.32,1.14,1.14,0,0,0-.48-1,2.84,2.84,0,0,0-1.8-.48q-.48.12-.84.18t-.84.18a11.94,11.94,0,0,1-1.8.36,16.19,16.19,0,0,0-1.92.36,3.64,3.64,0,0,1-1.08.12,21,21,0,0,1-3.12.48,12.48,12.48,0,0,0-3,.6q-1,.24-1.8.42a9.11,9.11,0,0,0-1.68.54,10.92,10.92,0,0,0-4.26,3.24q-1.74,2.16-1.26,6a6.35,6.35,0,0,0,1.32,3.36,5.76,5.76,0,0,0,2.52,2.1,15,15,0,0,0,3.66,1.14,16.13,16.13,0,0,0,4.2.18,19,19,0,0,0,4.14-.78,10.27,10.27,0,0,0,4.92-3.06,14.42,14.42,0,0,0,2.76-5.22,8.33,8.33,0,0,0,.3-1.74,10.57,10.57,0,0,1,.3-1.86Z" transform="translate(-119.6 -31.66)"/>
    <path class="ae5852ea-6acd-4b67-aeab-cfc22db55c4d" d="M798.21,144.91a10.27,10.27,0,0,1,2.34.24,2.68,2.68,0,0,1,1.62,1.08,5.67,5.67,0,0,1,.72,3.3v4.14q0,1.32.06,3a5.53,5.53,0,0,1-.42,2.64,2.19,2.19,0,0,1-1.38,1.08,7.93,7.93,0,0,1-2,.24q-1.14,0-2.4-.12a7.48,7.48,0,0,0-2.34.12,8.24,8.24,0,0,1-1.68.3,6.35,6.35,0,0,0-1.56.3,18.12,18.12,0,0,0-3.84,1.74,10.16,10.16,0,0,0-3,2.58q-.6,1-1.26,2t-1.26,2.1q-.36,1-.66,2t-.54,2a6.3,6.3,0,0,0-.24,1.74,6.3,6.3,0,0,1-.24,1.74,2.33,2.33,0,0,0-.06.9,1.68,1.68,0,0,1-.06.78v1.92a4.72,4.72,0,0,0-.12,1.86,17,17,0,0,1,.12,2v17.88q0,1.56-.12,2.88a4.33,4.33,0,0,1-.72,2.16,1.44,1.44,0,0,1-.78.54,9.49,9.49,0,0,1-1.14.3h-.6a6.74,6.74,0,0,1-1.32.12h-6.48a9.11,9.11,0,0,0-1.5-.12h-1.62q-.6-.24-1.2-.42a1.26,1.26,0,0,1-.84-.78,3,3,0,0,1-.54-1.74q-.06-1.14-.06-2.34V149.77a3.29,3.29,0,0,1,.48-1.86,2.63,2.63,0,0,1,1.8-1.2,14.91,14.91,0,0,1,2.88-.24h6.12a15.51,15.51,0,0,1,2.52.18,2.37,2.37,0,0,1,1.68,1.14,3.68,3.68,0,0,1,.42,1.68q.06,1.08.18,2.1a8.46,8.46,0,0,0,.42,1.86,1.13,1.13,0,0,0,1.14.84.69.69,0,0,1,.48-.24.69.69,0,0,0,.48-.24,6.9,6.9,0,0,0,1.26-1.38,5.65,5.65,0,0,1,1.38-1.38,5.24,5.24,0,0,0,.84-.78,5.24,5.24,0,0,1,.84-.78q1.08-.72,2.22-1.44t2.34-1.32a25.43,25.43,0,0,1,2.46-.84l2.58-.72a4.35,4.35,0,0,1,1.38-.06Q798,145.15,798.21,144.91Z" transform="translate(-119.6 -31.66)"/>
    <path class="ae5852ea-6acd-4b67-aeab-cfc22db55c4d" d="M809.61,122.83h8.76a21.86,21.86,0,0,1,2.4.12,2.72,2.72,0,0,1,1.68.72,5,5,0,0,1,.9,3.48q-.06,2.4-.06,4.44v27.6a14.56,14.56,0,0,1-.12,1.8,4.47,4.47,0,0,0,.12,1.8v1.08a6.53,6.53,0,0,1,.36,1.26,1.12,1.12,0,0,0,.72.9,1.11,1.11,0,0,0,1,.06,2,2,0,0,0,.84-.42,10.71,10.71,0,0,0,2.1-1.92q.9-1.08,1.86-2t2-2a14.43,14.43,0,0,0,1.92-2.22,5.82,5.82,0,0,0,.84-.72q.6-.6,1.2-1.26t1.2-1.26l2.76-2.76a2.09,2.09,0,0,1,.66-.78,3.6,3.6,0,0,0,.78-.78,13,13,0,0,1,2.1-2.1,6.76,6.76,0,0,1,2.82-1.26,9.06,9.06,0,0,1,1.68-.12,2.6,2.6,0,0,1,1-.06,8.77,8.77,0,0,0,1.08.06h4q1,0,2.34-.12a7.2,7.2,0,0,1,2.34.12h1.32a4.4,4.4,0,0,0,1.2.3,1,1,0,0,1,.84.54,1.11,1.11,0,0,1,.06,1,2,2,0,0,1-.42.84,8.22,8.22,0,0,1-1.8,2.1q-1.08.9-2,1.86t-1.62,1.68a13.06,13.06,0,0,1-1.74,1.56,6.15,6.15,0,0,0-1,1,6.15,6.15,0,0,1-1,1,4.06,4.06,0,0,0-1.08,1,6.89,6.89,0,0,1-1.08,1.08L845.85,165q-.84.72-1.5,1.38a9.1,9.1,0,0,0-1.26,1.62,6.11,6.11,0,0,0-.48.9,1.41,1.41,0,0,0,0,1.14,4.84,4.84,0,0,0,.9,2.16,20.47,20.47,0,0,1,1.26,1.8q1,1.32,1.74,2.64t1.74,2.64l12.6,19.08q1.2,1.68,2.34,3.36t2.1,3.36a3.2,3.2,0,0,1,.42,1.44,1.45,1.45,0,0,1-.54,1.32,2.13,2.13,0,0,1-1,.24,3,3,0,0,0-1.08.24,3.15,3.15,0,0,1-1.08.06q-.6-.06-1.2-.06h-4.68q-1.92,0-4.56.06a9.48,9.48,0,0,1-4-.54,5.25,5.25,0,0,1-2.28-2.22q-1-1.62-1.8-2.94-2-3.24-4.08-6.54t-4.08-6.54q-1-1.56-1.86-3.12a29.89,29.89,0,0,0-2-3,7,7,0,0,0-.84-1,1.22,1.22,0,0,0-1.32-.36,3.59,3.59,0,0,0-1.62.72q-.54.48-1.14,1.08a11.81,11.81,0,0,0-1.8,1.68,7.11,7.11,0,0,0-1.32,2.28,8.65,8.65,0,0,0-.24,2.1v9.66q0,.84.06,1.86t.06,2.1a15,15,0,0,1-.12,2,2.94,2.94,0,0,1-.48,1.38,2.6,2.6,0,0,1-1.5,1,9.91,9.91,0,0,1-2.34.36q-1.32.06-2.76,0t-2.52-.06q-1.32,0-2.88.06a6.59,6.59,0,0,1-2.52-.3,2.38,2.38,0,0,1-1.68-2.16q-.12-1.56-.12-3.6V129.19q0-1.32-.06-2.76a4.24,4.24,0,0,1,.42-2.28,2.72,2.72,0,0,1,1.68-1.2,2.78,2.78,0,0,0,.54-.06A2.78,2.78,0,0,1,809.61,122.83Z" transform="translate(-119.6 -31.66)"/>
    <path class="ae5852ea-6acd-4b67-aeab-cfc22db55c4d" d="M927.69,176.83a4.91,4.91,0,0,1,0,2.16,2.23,2.23,0,0,1-.84,1.56,3.69,3.69,0,0,1-1.74.66,22.5,22.5,0,0,1-2.52.24q-1.38.06-2.76,0t-2.46-.06h-30.9a3.7,3.7,0,0,0-1.38.24,2.6,2.6,0,0,0-1.2,1,2.57,2.57,0,0,0-.48.9,2.31,2.31,0,0,0-.12,1.26,6.13,6.13,0,0,1,.3,1.38,6.13,6.13,0,0,0,.3,1.38,16.9,16.9,0,0,0,2.34,4.74,12.85,12.85,0,0,0,3.78,3.3,5.53,5.53,0,0,0,2,.78,14.76,14.76,0,0,1,2.1.54,16.17,16.17,0,0,0,2.64.36,10.92,10.92,0,0,0,2.88-.12h1.08q1.2-.24,2.22-.54t2-.66a30,30,0,0,0,2.7-1.56,8.42,8.42,0,0,0,2.22-1.92q.6-.84,1.26-1.62a3.87,3.87,0,0,1,1.62-1.14,6.36,6.36,0,0,1,3.06-.54q1.86.06,3.42.06.72,0,1.5-.06a3.05,3.05,0,0,1,1.38.18h1.2a4.38,4.38,0,0,1,1.68.6,1.19,1.19,0,0,1,.54,1.08,3.24,3.24,0,0,1-.18,1.44,21.07,21.07,0,0,1-1.32,3,31.4,31.4,0,0,1-7.68,9,31.6,31.6,0,0,1-8.4,4.08,10.48,10.48,0,0,1-2.64.6,18.19,18.19,0,0,0-2.76.48,2.87,2.87,0,0,1-1,.06,2.87,2.87,0,0,0-1,.06h-1.32a3.05,3.05,0,0,1-1.38.18,11.67,11.67,0,0,1-1.38-.18,5.88,5.88,0,0,0-1.68,0,3.54,3.54,0,0,1-1.56-.12,3.52,3.52,0,0,0-1.32-.24,3.52,3.52,0,0,1-1.32-.24q-1.32-.24-2.64-.54a9,9,0,0,1-2.4-.9l-2.46-.9a11.36,11.36,0,0,1-2.1-1,34.45,34.45,0,0,1-6.84-5.58,27,27,0,0,1-4.92-7.38,16.71,16.71,0,0,1-1-2.7,21.36,21.36,0,0,0-1-2.82,3.72,3.72,0,0,1-.12-.9,3.72,3.72,0,0,0-.12-.9,12.7,12.7,0,0,1-.6-3.12l-.24-3.36q0-.6-.06-1.32a4.73,4.73,0,0,1,.06-1.32v-1.44l.36-2.88q.48-2,.84-4a17.12,17.12,0,0,1,1.08-3.6,31.39,31.39,0,0,1,17.52-17.64,15.23,15.23,0,0,1,3.42-1q1.74-.3,3.66-.78a14.56,14.56,0,0,1,1.8-.12,14.56,14.56,0,0,0,1.8-.12,30.67,30.67,0,0,1,10.5,1.38,32,32,0,0,1,7.86,3.9,25.32,25.32,0,0,1,2.16,1.62,17,17,0,0,1,1.92,1.86,2.76,2.76,0,0,0,1,1q1,1.32,1.8,2.7t1.8,2.82a15.85,15.85,0,0,1,1,2.22l.9,2.46a21.64,21.64,0,0,1,1,3.24q.36,1.68.84,3.36a7.1,7.1,0,0,1,.18,2.1,7.1,7.1,0,0,0,.18,2.1Zm-18-7.08a3,3,0,0,0,.18-2.94q-.66-1.74-1-2.58a12.55,12.55,0,0,0-4.44-5,15.08,15.08,0,0,0-7.68-1.86,1,1,0,0,1-.84.12,1.49,1.49,0,0,0-.84,0,4.55,4.55,0,0,1-1.32.3,4.55,4.55,0,0,0-1.32.3,12.8,12.8,0,0,0-7.8,6.6q-.24.48-.54,1.26a7.53,7.53,0,0,0-.42,1.56,3.77,3.77,0,0,0,.06,1.5,2.18,2.18,0,0,0,.78,1.2,5,5,0,0,0,2.64.6h16.56q1.68,0,3.54-.06A2.81,2.81,0,0,0,909.69,169.75Z" transform="translate(-119.6 -31.66)"/>
    <path class="ae5852ea-6acd-4b67-aeab-cfc22db55c4d" d="M941.25,128h8a24.85,24.85,0,0,1,3.18.18,2.41,2.41,0,0,1,2,1.5,3.88,3.88,0,0,1,.24,1.44v7.08q0,.6-.06,1.38a5.09,5.09,0,0,0,.06,1.38v1.32a11.5,11.5,0,0,0,.12,1.74,2.87,2.87,0,0,0,.6,1.38,3.82,3.82,0,0,0,3.06,1.14q2.22.06,4.26.06h1.44a3.52,3.52,0,0,1,1.32.24A2.51,2.51,0,0,1,967,149a30.56,30.56,0,0,1,.18,3.48q0,.84.06,1.68a3.24,3.24,0,0,1-.18,1.44,2.64,2.64,0,0,1-2.52,2q-1.92.12-4.32.12a9.26,9.26,0,0,1-1-.06,2.13,2.13,0,0,0-.9.06,2.08,2.08,0,0,1-.84.06,1,1,0,0,0-.72.18,2,2,0,0,0-1.38,1,7.23,7.23,0,0,0-.66,1.86,3.65,3.65,0,0,0,0,1.32,3.65,3.65,0,0,1,0,1.32V185q0,3,.18,5.22a7.1,7.1,0,0,0,1.5,3.9,3.23,3.23,0,0,0,1.62,1q1,.3,2.1.54a1.68,1.68,0,0,0,.78.06,1.13,1.13,0,0,1,.66.06h1.32a18.69,18.69,0,0,1,2.28.12,2.19,2.19,0,0,1,1.56,1,3.29,3.29,0,0,1,.48,1.86v2.34q0,2.52-.06,4.62a2.85,2.85,0,0,1-2,2.82,2.19,2.19,0,0,1-1.08.18,2.19,2.19,0,0,0-1.08.18h-1.2a6.37,6.37,0,0,1-.72-.06,1.9,1.9,0,0,0-.84.06,4.38,4.38,0,0,1-1.26.06q-.66-.06-1.26-.06t-1.2.06a3.15,3.15,0,0,1-1.08-.06h-1.32a6.74,6.74,0,0,0-1.32-.12,6.74,6.74,0,0,1-1.32-.12l-1.56-.24-1.44-.24a23.26,23.26,0,0,1-2.52-.84,19.93,19.93,0,0,1-2.28-1.08,8.44,8.44,0,0,1-.72-.54q-.36-.3-.84-.66-.24-.24-.6-.54t-.6-.54a16.56,16.56,0,0,1-2.52-5,1.52,1.52,0,0,1-.18-.9,3.08,3.08,0,0,0-.06-1,1.34,1.34,0,0,1-.12-.6,1.34,1.34,0,0,0-.12-.6v-1.2a3.15,3.15,0,0,1-.06-1.08q.06-.6.06-1.2v-28.8q0-.84.06-1.68a4,4,0,0,0-.18-1.56,3,3,0,0,0-1.68-2.16,6.32,6.32,0,0,0-3.36-.36,6.9,6.9,0,0,1-3.48-.36,1.82,1.82,0,0,1-1.2-1.08,18.56,18.56,0,0,1-.48-1.8V152a20.22,20.22,0,0,1,.24-3.48q.24-1.32,2-1.8a1.65,1.65,0,0,1,1-.18,8.77,8.77,0,0,0,1.08.06,29.39,29.39,0,0,0,3.36-.18,2.55,2.55,0,0,0,2.16-1.38,5.64,5.64,0,0,0,.42-1.92q.06-1.08.06-2.16v-9.48a5.77,5.77,0,0,1,.24-1.8,2.89,2.89,0,0,1,1.8-1.56,1.13,1.13,0,0,1,.66-.06A1.13,1.13,0,0,0,941.25,128Z" transform="translate(-119.6 -31.66)"/>
  </g>
</svg>
